<?xml version="1.0" standalone="no"?>
<!DOCTYPE svg PUBLIC "-//W3C//DTD SVG 20010904//EN"
 "http://www.w3.org/TR/2001/REC-SVG-20010904/DTD/svg10.dtd">
<svg version="1.0" xmlns="http://www.w3.org/2000/svg"
 width="1000.000000pt" height="239.000000pt" viewBox="0 0 1000.000000 239.000000"
 preserveAspectRatio="xMidYMid meet">
<metadata>
Created by potrace 1.16, written by Peter Selinger 2001-2019
</metadata>
<g transform="translate(0.000000,239.000000) scale(0.100000,-0.100000)"
fill="#000000" stroke="none">
<path d="M4880 1254 l0 -1025 35 -15 c47 -19 182 -51 275 -64 107 -15 322 -13
411 4 232 44 419 177 509 361 63 126 75 186 75 365 0 133 -3 165 -23 228 -40
128 -130 261 -216 319 -23 16 -43 31 -46 34 -12 14 -141 69 -197 83 -146 38
-348 28 -467 -24 -24 -10 -47 -16 -50 -13 -3 4 -6 179 -6 390 l0 383 -150 0
-150 0 0 -1026z m673 36 c91 -17 147 -48 218 -119 93 -94 114 -154 113 -316
-1 -100 -5 -130 -24 -180 -50 -130 -127 -204 -262 -252 -63 -23 -90 -27 -193
-27 -69 0 -142 5 -173 13 l-52 13 2 406 3 407 58 23 c95 38 212 50 310 32z"/>
<path d="M2904 2121 c-93 -42 -132 -159 -82 -246 31 -53 109 -105 157 -105
116 1 218 122 190 225 -32 118 -154 176 -265 126z"/>
<path d="M691 1559 c-87 -13 -213 -63 -293 -116 -128 -84 -231 -231 -274 -393
-28 -102 -26 -312 4 -415 81 -281 296 -458 599 -494 148 -18 322 8 436 65 l47
24 -17 28 c-10 15 -20 29 -24 32 -3 3 -25 38 -49 78 -33 56 -47 71 -59 66 -79
-34 -231 -42 -330 -18 -81 20 -123 41 -180 90 -97 83 -141 193 -141 349 0 100
10 145 47 222 86 180 297 261 536 207 52 -12 72 -13 75 -5 2 6 10 18 18 25 8
8 14 17 14 20 0 5 48 88 75 130 16 24 16 25 -31 45 -134 60 -307 83 -453 60z"/>
<path d="M1810 1560 c-141 -19 -300 -96 -390 -190 -77 -80 -142 -192 -176
-305 -27 -87 -27 -345 0 -430 21 -68 77 -185 107 -224 186 -241 517 -337 818
-236 291 97 461 347 461 675 0 182 -45 326 -143 455 -57 75 -126 134 -217 184
-120 65 -297 93 -460 71z m212 -261 c181 -39 290 -189 304 -418 15 -258 -114
-445 -335 -483 -230 -39 -427 116 -461 362 -37 268 82 485 295 540 46 12 138
11 197 -1z"/>
<path d="M3875 1560 c-113 -12 -223 -35 -348 -71 -87 -26 -108 -36 -112 -53
-3 -11 -4 -300 -3 -641 l3 -620 153 -3 152 -3 0 545 0 545 58 13 c34 8 119 13
212 13 140 0 159 -2 195 -22 59 -32 82 -55 107 -109 23 -48 23 -56 26 -516 3
-457 3 -468 22 -468 11 -1 72 -1 135 -1 63 0 122 0 131 1 14 0 15 49 12 503
-5 545 -5 542 -65 660 -52 104 -149 175 -288 212 -72 19 -279 27 -390 15z"/>
<path d="M6733 1560 c-65 -10 -178 -44 -249 -75 l-54 -24 0 -125 c0 -80 4
-126 10 -126 6 0 33 12 61 26 117 59 333 87 435 56 111 -33 154 -98 154 -234
l0 -88 -107 0 c-431 0 -661 -130 -680 -383 -16 -211 95 -352 327 -418 78 -22
103 -24 300 -24 204 0 265 6 433 41 l28 6 -4 511 c-4 555 -5 565 -61 661 -93
158 -325 235 -593 196z m357 -989 l0 -199 -99 -7 c-151 -11 -243 5 -314 53
-95 64 -103 203 -15 277 60 50 156 73 316 74 l112 1 0 -199z"/>
<path d="M7969 1559 c-132 -19 -273 -108 -321 -203 -62 -122 -64 -289 -3 -406
46 -89 169 -162 358 -211 117 -31 200 -67 229 -101 28 -33 40 -90 29 -140 -11
-50 -55 -93 -111 -108 -49 -14 -174 -12 -245 4 -79 17 -202 69 -239 101 -16
14 -33 25 -38 25 -4 0 -8 -62 -8 -139 l0 -138 68 -31 c137 -63 278 -87 428
-72 163 17 259 56 342 141 116 119 134 350 38 492 -67 99 -159 150 -371 207
-99 26 -182 67 -209 104 -16 20 -21 42 -21 86 0 51 4 63 30 91 44 46 87 61
177 61 121 -1 250 -40 340 -103 14 -11 29 -19 32 -19 3 0 6 60 6 134 l0 133
-67 30 c-103 46 -122 52 -198 63 -81 11 -166 11 -246 -1z"/>
<path d="M9215 1555 c-75 -16 -177 -58 -230 -95 -60 -42 -157 -148 -192 -210
-71 -128 -103 -254 -103 -407 0 -298 141 -534 383 -641 56 -25 193 -59 262
-65 74 -7 260 10 342 32 40 10 103 34 140 53 l68 34 3 131 3 131 -78 -39
c-135 -68 -340 -104 -463 -81 -205 38 -353 179 -363 345 l-2 37 475 3 475 2
-1 145 c-1 229 -42 354 -157 476 -124 133 -355 194 -562 149z m201 -246 c140
-25 220 -122 237 -286 l4 -43 -333 0 c-184 0 -334 4 -334 8 0 14 37 117 53
148 27 53 96 121 143 144 81 37 141 45 230 29z"/>
<path d="M2840 855 l0 -685 150 0 150 0 0 685 0 685 -150 0 -150 0 0 -685z"/>
</g>
</svg>
